<svg width="535" height="429" xmlns="http://www.w3.org/2000/svg" xmlns:xlink="http://www.w3.org/1999/xlink" xml:space="preserve" overflow="hidden"><defs><clipPath id="clip0"><rect x="418" y="226" width="535" height="429"/></clipPath></defs><g clip-path="url(#clip0)" transform="translate(-418 -226)"><text fill="#1D2B4F" font-family="Noto Sans TC,Noto Sans TC_MSFontService,Arial" font-weight="700" font-size="8.99583" transform="matrix(2.05787 0 0 1.97307 569.223 222)">圖 </text><text fill="#1D2B4F" font-family="Noto Sans TC,Noto Sans TC_MSFontService,Arial" font-weight="700" font-size="8.99583" transform="matrix(2.05787 0 0 1.97307 591.938 222)">3</text><text fill="#1D2B4F" font-family="Noto Sans TC,Noto Sans TC_MSFontService,Arial" font-weight="700" font-size="8.99583" transform="matrix(2.05787 0 0 1.97307 602.861 222)">-</text><text fill="#1D2B4F" font-family="Noto Sans TC,Noto Sans TC_MSFontService,Arial" font-weight="700" font-size="8.99583" transform="matrix(2.05787 0 0 1.97307 609.71 222)">8</text><text fill="#1D2B4F" font-family="Noto Sans TC,Noto Sans TC_MSFontService,Arial" font-weight="700" font-size="8.99583" transform="matrix(2.05787 0 0 1.97307 620.632 222)">　</text><text fill="#1D2B4F" font-family="Noto Sans TC,Noto Sans TC_MSFontService,Arial" font-weight="700" font-size="8.99583" transform="matrix(2.05787 0 0 1.97307 639.144 222)">研究架構整合總覽圖</text><text fill="#506583" font-family="Noto Sans TC,Noto Sans TC_MSFontService,Arial" font-weight="700" font-size="6.35" transform="matrix(2.05787 0 0 1.97307 546.197 241)">AIGC × BIM × GRC × </text><text fill="#506583" font-family="Noto Sans TC,Noto Sans TC_MSFontService,Arial" font-weight="700" font-size="6.35" transform="matrix(2.05787 0 0 1.97307 685.039 241)">三層驗證之整體研究邏輯</text><path d="M-17.151 315.814 426.584 315.814" stroke="#5577AA" stroke-width="2.08816" fill="none" transform="matrix(1.04297 0 0 1 485.619 131.031)"/><path d="M530.394 265.197 537.703 261.02 530.394 256.845Z" fill="#5577AA" transform="matrix(1.04297 0 0 1 369.725 185.824)"/><path d="M57.8211 315.814C57.8211 338.879 39.1229 357.577 16.0576 357.577-7.00769 357.577-25.7058 338.879-25.7058 315.814-25.7058 292.749-7.00769 274.051 16.0576 274.051 39.1229 274.051 57.8211 292.749 57.8211 315.814Z" fill="#6B8DD6" transform="matrix(1.04297 0 0 1 485.619 131.031)"/><text fill="#FFFFFF" font-family="Noto Sans TC,Noto Sans TC_MSFontService,Arial" font-weight="700" font-size="5.82083" transform="matrix(2.05787 0 0 1.97307 488.328 451)">AIGC</text><path d="M235.315 315.814C235.315 338.879 216.617 357.577 193.552 357.577 170.487 357.577 151.788 338.879 151.788 315.814 151.788 292.749 170.487 274.051 193.552 274.051 216.617 274.051 235.315 292.749 235.315 315.814Z" fill="#7FC4B2" transform="matrix(1.04297 0 0 1 485.619 131.031)"/><text fill="#FFFFFF" font-family="Noto Sans TC,Noto Sans TC_MSFontService,Arial" font-weight="700" font-size="5.82083" transform="matrix(2.05787 0 0 1.97307 661.029 451)">BIM</text><text fill="#FFFFFF" font-family="Noto Sans TC,Noto Sans TC_MSFontService,Arial" font-weight="700" font-size="5.82083" transform="matrix(2.05787 0 0 1.97307 683.356 451)">／</text><text fill="#FFFFFF" font-family="Noto Sans TC,Noto Sans TC_MSFontService,Arial" font-weight="700" font-size="5.82083" transform="matrix(2.05787 0 0 1.97307 695.335 451)">IFC</text><path d="M412.81 315.814C412.81 338.879 394.112 357.577 371.046 357.577 347.981 357.577 329.283 338.879 329.283 315.814 329.283 292.749 347.981 274.051 371.046 274.051 394.112 274.051 412.81 292.749 412.81 315.814Z" fill="#D8A75F" transform="matrix(1.04297 0 0 1 485.619 131.031)"/><text fill="#FFFFFF" font-family="Noto Sans TC,Noto Sans TC_MSFontService,Arial" font-weight="700" font-size="5.82083" transform="matrix(2.05787 0 0 1.97307 860.303 451)">GRC</text><path d="M418.03 159.201C423.796 159.201 428.471 163.876 428.471 169.642L428.471 216.626C428.471 222.392 423.796 227.066 418.03 227.066L-30.9262 227.066C-36.6925 227.066-41.3671 222.392-41.3671 216.626L-41.3671 169.642C-41.3671 163.876-36.6925 159.201-30.9262 159.201Z" stroke="#8EA7C9" stroke-width="1.2529" fill="#FFFFFF" transform="matrix(1.04297 0 0 1 485.619 131.031)"/><text fill="#21365A" font-family="Noto Sans TC,Noto Sans TC_MSFontService,Arial" font-weight="700" font-size="5.82083" transform="matrix(2.05787 0 0 1.97307 609.629 311)">理論層</text><text fill="#21365A" font-family="Noto Sans TC,Noto Sans TC_MSFontService,Arial" font-weight="700" font-size="5.82083" transform="matrix(2.05787 0 0 1.97307 645.564 311)">：</text><text fill="#21365A" font-family="Noto Sans TC,Noto Sans TC_MSFontService,Arial" font-weight="700" font-size="5.82083" transform="matrix(2.05787 0 0 1.97307 657.543 311)">學理基礎與研究假設</text><text fill="#314A6E" font-family="Noto Sans TC,Noto Sans TC_MSFontService,Arial" font-weight="400" font-size="4.7625" transform="matrix(2.05787 0 0 1.97307 553.054 329)">文獻探討 </text><text fill="#314A6E" font-family="Noto Sans TC,Noto Sans TC_MSFontService,Arial" font-weight="400" font-size="4.7625" transform="matrix(2.05787 0 0 1.97307 594.452 329)">→ </text><text fill="#314A6E" font-family="Noto Sans TC,Noto Sans TC_MSFontService,Arial" font-weight="400" font-size="4.7625" transform="matrix(2.05787 0 0 1.97307 606.448 329)">建立生成式設計</text><text fill="#314A6E" font-family="Noto Sans TC,Noto Sans TC_MSFontService,Arial" font-weight="400" font-size="4.7625" transform="matrix(2.05787 0 0 1.97307 675.052 329)">、</text><text fill="#314A6E" font-family="Noto Sans TC,Noto Sans TC_MSFontService,Arial" font-weight="400" font-size="4.7625" transform="matrix(2.05787 0 0 1.97307 684.853 329)">BIM </text><text fill="#314A6E" font-family="Noto Sans TC,Noto Sans TC_MSFontService,Arial" font-weight="400" font-size="4.7625" transform="matrix(2.05787 0 0 1.97307 704.317 329)">整合</text><text fill="#314A6E" font-family="Noto Sans TC,Noto Sans TC_MSFontService,Arial" font-weight="400" font-size="4.7625" transform="matrix(2.05787 0 0 1.97307 723.918 329)">、</text><text fill="#314A6E" font-family="Noto Sans TC,Noto Sans TC_MSFontService,Arial" font-weight="400" font-size="4.7625" transform="matrix(2.05787 0 0 1.97307 733.719 329)">材料構築之理論模型</text><path d="M418.03 430.662C423.796 430.662 428.471 435.337 428.471 441.103L428.471 477.647C428.471 483.412 423.796 488.087 418.03 488.087L-30.9262 488.087C-36.6925 488.087-41.3671 483.412-41.3671 477.647L-41.3671 441.103C-41.3671 435.337-36.6925 430.662-30.9262 430.662Z" stroke="#8EA7C9" stroke-width="1.2529" fill="#FFFFFF" transform="matrix(1.04297 0 0 1 485.619 131.031)"/><text fill="#21365A" font-family="Noto Sans TC,Noto Sans TC_MSFontService,Arial" font-weight="700" font-size="5.82083" transform="matrix(2.05787 0 0 1.97307 621.607 583)">實作層</text><text fill="#21365A" font-family="Noto Sans TC,Noto Sans TC_MSFontService,Arial" font-weight="700" font-size="5.82083" transform="matrix(2.05787 0 0 1.97307 657.543 583)">：</text><text fill="#21365A" font-family="Noto Sans TC,Noto Sans TC_MSFontService,Arial" font-weight="700" font-size="5.82083" transform="matrix(2.05787 0 0 1.97307 669.522 583)">案例驗證與回饋</text><text fill="#314A6E" font-family="Noto Sans TC,Noto Sans TC_MSFontService,Arial" font-weight="400" font-size="4.7625" transform="matrix(2.05787 0 0 1.97307 538.539 601)">以雅園會館為核心案例進行生成設計</text><text fill="#314A6E" font-family="Noto Sans TC,Noto Sans TC_MSFontService,Arial" font-weight="400" font-size="4.7625" transform="matrix(2.05787 0 0 1.97307 695.349 601)">、</text><text fill="#314A6E" font-family="Noto Sans TC,Noto Sans TC_MSFontService,Arial" font-weight="400" font-size="4.7625" transform="matrix(2.05787 0 0 1.97307 705.15 601)">BIM </text><text fill="#314A6E" font-family="Noto Sans TC,Noto Sans TC_MSFontService,Arial" font-weight="400" font-size="4.7625" transform="matrix(2.05787 0 0 1.97307 724.614 601)">整合與 </text><text fill="#314A6E" font-family="Noto Sans TC,Noto Sans TC_MSFontService,Arial" font-weight="400" font-size="4.7625" transform="matrix(2.05787 0 0 1.97307 756.211 601)">GRC </text><text fill="#314A6E" font-family="Noto Sans TC,Noto Sans TC_MSFontService,Arial" font-weight="400" font-size="4.7625" transform="matrix(2.05787 0 0 1.97307 777.635 601)">材料落地驗證</text><path d="M193.552 227.067 193.552 268.831" stroke="#5577AA" stroke-width="2.08816" fill="none" transform="matrix(1.04297 0 0 1 485.619 131.031)"/><path d="M309.049 206.729 317.401 206.729 313.225 214.037Z" fill="#5577AA" transform="matrix(1.04297 0 0 1 360.802 185.824)"/><path d="M193.552 362.799 193.552 425.444" stroke="#5577AA" stroke-width="2.08816" fill="none" transform="matrix(1.04297 0 0 1 485.619 131.031)"/><path d="M309.049 363.341 317.401 363.341 313.225 370.649Z" fill="#5577AA" transform="matrix(1.04297 0 0 1 360.802 185.824)"/><text fill="#506583" font-family="Noto Sans TC,Noto Sans TC_MSFontService,Arial" font-weight="700" font-size="6.35" transform="matrix(2.05787 0 0 1.97307 481.644 640)">資料來源</text><text fill="#506583" font-family="Noto Sans TC,Noto Sans TC_MSFontService,Arial" font-weight="700" font-size="6.35" transform="matrix(2.05787 0 0 1.97307 533.913 640)">：</text><text fill="#506583" font-family="Noto Sans TC,Noto Sans TC_MSFontService,Arial" font-weight="700" font-size="6.35" transform="matrix(2.05787 0 0 1.97307 546.981 640)">作者自製</text><text fill="#506583" font-family="Noto Sans TC,Noto Sans TC_MSFontService,Arial" font-weight="700" font-size="6.35" transform="matrix(2.05787 0 0 1.97307 599.251 640)">（</text><text fill="#506583" font-family="Noto Sans TC,Noto Sans TC_MSFontService,Arial" font-weight="700" font-size="6.35" transform="matrix(2.05787 0 0 1.97307 612.319 640)">2025</text><text fill="#506583" font-family="Noto Sans TC,Noto Sans TC_MSFontService,Arial" font-weight="700" font-size="6.35" transform="matrix(2.05787 0 0 1.97307 643.157 640)">）　</text><text fill="#506583" font-family="Noto Sans TC,Noto Sans TC_MSFontService,Arial" font-weight="700" font-size="6.35" transform="matrix(2.05787 0 0 1.97307 669.293 640)">配色</text><text fill="#506583" font-family="Noto Sans TC,Noto Sans TC_MSFontService,Arial" font-weight="700" font-size="6.35" transform="matrix(2.05787 0 0 1.97307 695.428 640)">：</text><text fill="#506583" font-family="Noto Sans TC,Noto Sans TC_MSFontService,Arial" font-weight="700" font-size="6.35" transform="matrix(2.05787 0 0 1.97307 708.495 640)">#</text><text fill="#506583" font-family="Noto Sans TC,Noto Sans TC_MSFontService,Arial" font-weight="700" font-size="6.35" transform="matrix(2.05787 0 0 1.97307 716.205 640)">6</text><text fill="#506583" font-family="Noto Sans TC,Noto Sans TC_MSFontService,Arial" font-weight="700" font-size="6.35" transform="matrix(2.05787 0 0 1.97307 723.914 640)">b</text><text fill="#506583" font-family="Noto Sans TC,Noto Sans TC_MSFontService,Arial" font-weight="700" font-size="6.35" transform="matrix(2.05787 0 0 1.97307 732.33 640)">8</text><text fill="#506583" font-family="Noto Sans TC,Noto Sans TC_MSFontService,Arial" font-weight="700" font-size="6.35" transform="matrix(2.05787 0 0 1.97307 740.04 640)">dd</text><text fill="#506583" font-family="Noto Sans TC,Noto Sans TC_MSFontService,Arial" font-weight="700" font-size="6.35" transform="matrix(2.05787 0 0 1.97307 756.87 640)">6</text><text fill="#506583" font-family="Noto Sans TC,Noto Sans TC_MSFontService,Arial" font-weight="700" font-size="6.35" transform="matrix(2.05787 0 0 1.97307 764.581 640)">、</text><text fill="#506583" font-family="Noto Sans TC,Noto Sans TC_MSFontService,Arial" font-weight="700" font-size="6.35" transform="matrix(2.05787 0 0 1.97307 777.648 640)">#</text><text fill="#506583" font-family="Noto Sans TC,Noto Sans TC_MSFontService,Arial" font-weight="700" font-size="6.35" transform="matrix(2.05787 0 0 1.97307 785.358 640)">7</text><text fill="#506583" font-family="Noto Sans TC,Noto Sans TC_MSFontService,Arial" font-weight="700" font-size="6.35" transform="matrix(2.05787 0 0 1.97307 793.068 640)">fc</text><text fill="#506583" font-family="Noto Sans TC,Noto Sans TC_MSFontService,Arial" font-weight="700" font-size="6.35" transform="matrix(2.05787 0 0 1.97307 804.593 640)">4</text><text fill="#506583" font-family="Noto Sans TC,Noto Sans TC_MSFontService,Arial" font-weight="700" font-size="6.35" transform="matrix(2.05787 0 0 1.97307 812.303 640)">b</text><text fill="#506583" font-family="Noto Sans TC,Noto Sans TC_MSFontService,Arial" font-weight="700" font-size="6.35" transform="matrix(2.05787 0 0 1.97307 820.719 640)">2</text><text fill="#506583" font-family="Noto Sans TC,Noto Sans TC_MSFontService,Arial" font-weight="700" font-size="6.35" transform="matrix(2.05787 0 0 1.97307 828.429 640)">、</text><text fill="#506583" font-family="Noto Sans TC,Noto Sans TC_MSFontService,Arial" font-weight="700" font-size="6.35" transform="matrix(2.05787 0 0 1.97307 841.496 640)">#</text><text fill="#506583" font-family="Noto Sans TC,Noto Sans TC_MSFontService,Arial" font-weight="700" font-size="6.35" transform="matrix(2.05787 0 0 1.97307 849.206 640)">d</text><text fill="#506583" font-family="Noto Sans TC,Noto Sans TC_MSFontService,Arial" font-weight="700" font-size="6.35" transform="matrix(2.05787 0 0 1.97307 857.621 640)">8</text><text fill="#506583" font-family="Noto Sans TC,Noto Sans TC_MSFontService,Arial" font-weight="700" font-size="6.35" transform="matrix(2.05787 0 0 1.97307 865.331 640)">a</text><text fill="#506583" font-family="Noto Sans TC,Noto Sans TC_MSFontService,Arial" font-weight="700" font-size="6.35" transform="matrix(2.05787 0 0 1.97307 873.054 640)">75</text><text fill="#506583" font-family="Noto Sans TC,Noto Sans TC_MSFontService,Arial" font-weight="700" font-size="6.35" transform="matrix(2.05787 0 0 1.97307 888.474 640)">f</text></g></svg>