<svg width="1225" height="488" xmlns="http://www.w3.org/2000/svg" xmlns:xlink="http://www.w3.org/1999/xlink" xml:space="preserve" overflow="hidden"><defs><clipPath id="clip0"><rect x="83" y="156" width="1225" height="488"/></clipPath></defs><g clip-path="url(#clip0)" transform="translate(-83 -156)"><path d="M0 0 1388.62 0 1388.62 578.593 0 578.593Z" fill="#FFFFFF" transform="matrix(1.00127 0 0 1 -0.0060723 156)"/><text fill="#222222" font-family="Noto Sans TC,Noto Sans TC_MSFontService,Arial" font-weight="700" font-size="24" transform="matrix(1.15865 0 0 1.15718 389.302 237)">角色去單一</text><text fill="#222222" font-family="Noto Sans TC,Noto Sans TC_MSFontService,Arial" font-weight="700" font-size="24" transform="matrix(1.15865 0 0 1.15718 528.341 237)">：</text><text fill="#222222" font-family="Noto Sans TC,Noto Sans TC_MSFontService,Arial" font-weight="700" font-size="24" transform="matrix(1.15865 0 0 1.15718 556.148 237)">以多工具分工協作取代單一封閉軟體</text><text fill="#555555" font-family="Noto Sans TC,Noto Sans TC_MSFontService,Arial" font-weight="400" font-size="16" transform="matrix(1.15865 0 0 1.15718 315.149 278)">本研究重構設計生產流程</text><text fill="#555555" font-family="Noto Sans TC,Noto Sans TC_MSFontService,Arial" font-weight="400" font-size="16" transform="matrix(1.15865 0 0 1.15718 519.071 278)">：</text><text fill="#555555" font-family="Noto Sans TC,Noto Sans TC_MSFontService,Arial" font-weight="400" font-size="16" transform="matrix(1.15865 0 0 1.15718 537.611 278)">各工具扮演可被替換的</text><text fill="#555555" font-family="Noto Sans TC,Noto Sans TC_MSFontService,Arial" font-weight="400" font-size="16" transform="matrix(1.15865 0 0 1.15718 722.995 278)">「</text><text fill="#555555" font-family="Noto Sans TC,Noto Sans TC_MSFontService,Arial" font-weight="400" font-size="16" transform="matrix(1.15865 0 0 1.15718 741.533 278)">角色</text><text fill="#555555" font-family="Noto Sans TC,Noto Sans TC_MSFontService,Arial" font-weight="400" font-size="16" transform="matrix(1.15865 0 0 1.15718 778.61 278)">」，</text><text fill="#555555" font-family="Noto Sans TC,Noto Sans TC_MSFontService,Arial" font-weight="400" font-size="16" transform="matrix(1.15865 0 0 1.15718 815.688 278)">而非不可替代的</text><text fill="#555555" font-family="Noto Sans TC,Noto Sans TC_MSFontService,Arial" font-weight="400" font-size="16" transform="matrix(1.15865 0 0 1.15718 945.457 278)">「</text><text fill="#555555" font-family="Noto Sans TC,Noto Sans TC_MSFontService,Arial" font-weight="400" font-size="16" transform="matrix(1.15865 0 0 1.15718 963.994 278)">唯一軟體</text><text fill="#555555" font-family="Noto Sans TC,Noto Sans TC_MSFontService,Arial" font-weight="400" font-size="16" transform="matrix(1.15865 0 0 1.15718 1038.15 278)">」。</text><path d="M1277.53 162.006C1287.76 162.006 1296.05 170.295 1296.05 180.521L1296.05 455.93C1296.05 466.155 1287.76 474.447 1277.53 474.447L111.09 474.447C100.864 474.447 92.5749 466.155 92.5749 455.93L92.5749 180.521C92.5749 170.295 100.864 162.006 111.09 162.006Z" stroke="#DDDDDD" stroke-width="1.73578" fill="#F7F7FB" transform="matrix(1.00127 0 0 1 -0.0060723 156)"/><text fill="#444444" font-family="Noto Sans TC,Noto Sans TC_MSFontService,Arial" font-weight="700" font-size="16" transform="matrix(1.15865 0 0 1.15718 115.859 354)">開放式流程協作鏈</text><text fill="#444444" font-family="Noto Sans TC,Noto Sans TC_MSFontService,Arial" font-weight="700" font-size="16" transform="matrix(1.15865 0 0 1.15718 264.167 354)">（</text><text fill="#444444" font-family="Noto Sans TC,Noto Sans TC_MSFontService,Arial" font-weight="700" font-size="16" transform="matrix(1.15865 0 0 1.15718 282.705 354)">可被替代的流程</text><text fill="#444444" font-family="Noto Sans TC,Noto Sans TC_MSFontService,Arial" font-weight="700" font-size="16" transform="matrix(1.15865 0 0 1.15718 412.476 354)">，</text><text fill="#444444" font-family="Noto Sans TC,Noto Sans TC_MSFontService,Arial" font-weight="700" font-size="16" transform="matrix(1.15865 0 0 1.15718 431.014 354)">而非單一軟體</text><text fill="#444444" font-family="Noto Sans TC,Noto Sans TC_MSFontService,Arial" font-weight="700" font-size="16" transform="matrix(1.15865 0 0 1.15718 542.245 354)">）</text><path d="M354.099 243.009C363.047 243.009 370.3 250.262 370.3 259.21L370.3 365.67C370.3 374.618 363.047 381.871 354.099 381.871L155.063 381.871C146.115 381.871 138.862 374.618 138.862 365.67L138.862 259.21C138.862 250.262 146.115 243.009 155.063 243.009Z" stroke="#7AA7E6" stroke-width="1.73578" fill="#E4F1FF" transform="matrix(1.00127 0 0 1 -0.0060723 156)"/><text fill="#1A365D" font-family="Noto Sans TC,Noto Sans TC_MSFontService,Arial" font-weight="700" font-size="20" transform="matrix(1.15865 0 0 1.15718 227.739 440)">AIGC</text><text fill="#334E68" font-family="Noto Sans TC,Noto Sans TC_MSFontService,Arial" font-weight="400" font-size="14" transform="matrix(1.15865 0 0 1.15718 181.903 471)">生成</text><text fill="#334E68" font-family="Noto Sans TC,Noto Sans TC_MSFontService,Arial" font-weight="400" font-size="14" transform="matrix(1.15865 0 0 1.15718 214.345 471)">（</text><text fill="#334E68" font-family="Noto Sans TC,Noto Sans TC_MSFontService,Arial" font-weight="400" font-size="14" transform="matrix(1.15865 0 0 1.15718 230.566 471)">圖像</text><text fill="#334E68" font-family="Noto Sans TC,Noto Sans TC_MSFontService,Arial" font-weight="400" font-size="14" transform="matrix(1.15865 0 0 1.15718 263.008 471)">／</text><text fill="#334E68" font-family="Noto Sans TC,Noto Sans TC_MSFontService,Arial" font-weight="400" font-size="14" transform="matrix(1.15865 0 0 1.15718 279.23 471)">文本</text><text fill="#334E68" font-family="Noto Sans TC,Noto Sans TC_MSFontService,Arial" font-weight="400" font-size="14" transform="matrix(1.15865 0 0 1.15718 311.672 471)">）</text><text fill="#66758F" font-family="Noto Sans TC,Noto Sans TC_MSFontService,Arial" font-weight="400" font-size="13" transform="matrix(1.15865 0 0 1.15718 172.054 496)">提供初始設計意象與條件</text><path d="M370.3 312.44 416.586 312.44" stroke="#999999" stroke-width="2.31437" fill="none" transform="matrix(1.00127 0 0 1 -0.0060723 156)"/><path d="M0 0 16.2006 8.10028 0 16.2006Z" fill="#999999" transform="matrix(1.00127 0 0 1 400.888 460.338)"/><path d="M654.967 243.009C663.913 243.009 671.166 250.262 671.166 259.21L671.166 365.67C671.166 374.618 663.913 381.871 654.967 381.871L432.788 381.871C423.839 381.871 416.586 374.618 416.586 365.67L416.586 259.21C416.586 250.262 423.839 243.009 432.788 243.009Z" stroke="#72B29B" stroke-width="1.73578" fill="#E9F8F2" transform="matrix(1.00127 0 0 1 -0.0060723 156)"/><text fill="#22543D" font-family="Noto Sans TC,Noto Sans TC_MSFontService,Arial" font-weight="700" font-size="20" transform="matrix(1.15865 0 0 1.15718 478.01 440)">BlenderBIM</text><text fill="#285E4A" font-family="Noto Sans TC,Noto Sans TC_MSFontService,Arial" font-weight="400" font-size="14" transform="matrix(1.15865 0 0 1.15718 483.983 471)">語意建模</text><text fill="#285E4A" font-family="Noto Sans TC,Noto Sans TC_MSFontService,Arial" font-weight="400" font-size="14" transform="matrix(1.15865 0 0 1.15718 548.869 471)">（</text><text fill="#285E4A" font-family="Noto Sans TC,Noto Sans TC_MSFontService,Arial" font-weight="400" font-size="14" transform="matrix(1.15865 0 0 1.15718 565.091 471)">IFC</text><text fill="#285E4A" font-family="Noto Sans TC,Noto Sans TC_MSFontService,Arial" font-weight="400" font-size="14" transform="matrix(1.15865 0 0 1.15718 588.918 471)">）</text><text fill="#4A7C63" font-family="Noto Sans TC,Noto Sans TC_MSFontService,Arial" font-weight="400" font-size="13" transform="matrix(1.15865 0 0 1.15718 445.075 496)">將設計轉為可交換的 </text><text fill="#4A7C63" font-family="Noto Sans TC,Noto Sans TC_MSFontService,Arial" font-weight="400" font-size="13" transform="matrix(1.15865 0 0 1.15718 584.01 496)">BIM </text><text fill="#4A7C63" font-family="Noto Sans TC,Noto Sans TC_MSFontService,Arial" font-weight="400" font-size="13" transform="matrix(1.15865 0 0 1.15718 613.925 496)">資料</text><path d="M671.166 312.44 717.455 312.44" stroke="#999999" stroke-width="2.31437" fill="none" transform="matrix(1.00127 0 0 1 -0.0060723 156)"/><path d="M0 0 16.2006 8.10028 0 16.2006Z" fill="#999999" transform="matrix(1.00127 0 0 1 702.139 460.338)"/><path d="M932.692 243.009C941.638 243.009 948.891 250.262 948.891 259.21L948.891 365.67C948.891 374.618 941.638 381.871 932.692 381.871L733.654 381.871C724.708 381.871 717.455 374.618 717.455 365.67L717.455 259.21C717.455 250.262 724.708 243.009 733.654 243.009Z" stroke="#E0A955" stroke-width="1.73578" fill="#FFF7E6" transform="matrix(1.00127 0 0 1 -0.0060723 156)"/><text fill="#7B341E" font-family="Noto Sans TC,Noto Sans TC_MSFontService,Arial" font-weight="700" font-size="20" transform="matrix(1.15865 0 0 1.15718 800.707 440)">Rhino</text><text fill="#91472A" font-family="Noto Sans TC,Noto Sans TC_MSFontService,Arial" font-weight="400" font-size="14" transform="matrix(1.15865 0 0 1.15718 730.775 471)">幾何細部</text><text fill="#91472A" font-family="Noto Sans TC,Noto Sans TC_MSFontService,Arial" font-weight="400" font-size="14" transform="matrix(1.15865 0 0 1.15718 795.661 471)">（</text><text fill="#91472A" font-family="Noto Sans TC,Noto Sans TC_MSFontService,Arial" font-weight="400" font-size="14" transform="matrix(1.15865 0 0 1.15718 811.88 471)">NURBS</text><text fill="#91472A" font-family="Noto Sans TC,Noto Sans TC_MSFontService,Arial" font-weight="400" font-size="14" transform="matrix(1.15865 0 0 1.15718 865.638 471)">／</text><text fill="#91472A" font-family="Noto Sans TC,Noto Sans TC_MSFontService,Arial" font-weight="400" font-size="14" transform="matrix(1.15865 0 0 1.15718 881.86 471)">Mesh</text><text fill="#91472A" font-family="Noto Sans TC,Noto Sans TC_MSFontService,Arial" font-weight="400" font-size="14" transform="matrix(1.15865 0 0 1.15718 921.454 471)">）</text><text fill="#B77948" font-family="Noto Sans TC,Noto Sans TC_MSFontService,Arial" font-weight="400" font-size="13" transform="matrix(1.15865 0 0 1.15718 751.382 496)">進行精緻造型與構件細化</text><path d="M948.891 312.44 995.18 312.44" stroke="#999999" stroke-width="2.31437" fill="none" transform="matrix(1.00127 0 0 1 -0.0060723 156)"/><path d="M0 0 16.2006 8.10028 0 16.2006Z" fill="#999999" transform="matrix(1.00127 0 0 1 980.216 460.338)"/><path d="M1233.56 243.009C1242.51 243.009 1249.76 250.262 1249.76 259.21L1249.76 365.67C1249.76 374.618 1242.51 381.871 1233.56 381.871L1011.38 381.871C1002.43 381.871 995.18 374.618 995.18 365.67L995.18 259.21C995.18 250.262 1002.43 243.009 1011.38 243.009Z" stroke="#B39DDB" stroke-width="1.73578" fill="#F2E9FF" transform="matrix(1.00127 0 0 1 -0.0060723 156)"/><text fill="#4527A0" font-family="Noto Sans TC,Noto Sans TC_MSFontService,Arial" font-weight="700" font-size="18" transform="matrix(1.15865 0 0 1.15718 1026.36 433)">Twinmotion </text><text fill="#4527A0" font-family="Noto Sans TC,Noto Sans TC_MSFontService,Arial" font-weight="700" font-size="18" transform="matrix(1.15865 0 0 1.15718 1155.1 433)">／ </text><text fill="#4527A0" font-family="Noto Sans TC,Noto Sans TC_MSFontService,Arial" font-weight="700" font-size="18" transform="matrix(1.15865 0 0 1.15718 1180.69 433)">UE</text><text fill="#4527A0" font-family="Noto Sans TC,Noto Sans TC_MSFontService,Arial" font-weight="700" font-size="18" transform="matrix(1.15865 0 0 1.15718 1209.12 433)">5</text><text fill="#5E35B1" font-family="Noto Sans TC,Noto Sans TC_MSFontService,Arial" font-weight="400" font-size="14" transform="matrix(1.15865 0 0 1.15718 1026.56 463)">體驗與可視化</text><text fill="#5E35B1" font-family="Noto Sans TC,Noto Sans TC_MSFontService,Arial" font-weight="400" font-size="14" transform="matrix(1.15865 0 0 1.15718 1123.89 463)">（</text><text fill="#5E35B1" font-family="Noto Sans TC,Noto Sans TC_MSFontService,Arial" font-weight="400" font-size="14" transform="matrix(1.15865 0 0 1.15718 1140.11 463)">實時渲染</text><text fill="#5E35B1" font-family="Noto Sans TC,Noto Sans TC_MSFontService,Arial" font-weight="400" font-size="14" transform="matrix(1.15865 0 0 1.15718 1205 463)">）</text><text fill="#7E57C2" font-family="Noto Sans TC,Noto Sans TC_MSFontService,Arial" font-weight="400" font-size="13" transform="matrix(1.15865 0 0 1.15718 1048.58 488)">互動展示</text><text fill="#7E57C2" font-family="Noto Sans TC,Noto Sans TC_MSFontService,Arial" font-weight="400" font-size="13" transform="matrix(1.15865 0 0 1.15718 1108.83 488)">、</text><text fill="#7E57C2" font-family="Noto Sans TC,Noto Sans TC_MSFontService,Arial" font-weight="400" font-size="13" transform="matrix(1.15865 0 0 1.15718 1123.89 488)">沉浸式模擬</text><text fill="#555555" font-family="Noto Sans TC,Noto Sans TC_MSFontService,Arial" font-weight="400" font-size="14" transform="matrix(1.15865 0 0 1.15718 330.212 554)">此處不以</text><text fill="#555555" font-family="Noto Sans TC,Noto Sans TC_MSFontService,Arial" font-weight="400" font-size="14" transform="matrix(1.15865 0 0 1.15718 395.095 554)">「</text><text fill="#555555" font-family="Noto Sans TC,Noto Sans TC_MSFontService,Arial" font-weight="400" font-size="14" transform="matrix(1.15865 0 0 1.15718 411.317 554)">替代單一軟體</text><text fill="#555555" font-family="Noto Sans TC,Noto Sans TC_MSFontService,Arial" font-weight="400" font-size="14" transform="matrix(1.15865 0 0 1.15718 508.644 554)">」</text><text fill="#555555" font-family="Noto Sans TC,Noto Sans TC_MSFontService,Arial" font-weight="400" font-size="14" transform="matrix(1.15865 0 0 1.15718 524.864 554)">為目標</text><text fill="#555555" font-family="Noto Sans TC,Noto Sans TC_MSFontService,Arial" font-weight="400" font-size="14" transform="matrix(1.15865 0 0 1.15718 573.527 554)">，</text><text fill="#555555" font-family="Noto Sans TC,Noto Sans TC_MSFontService,Arial" font-weight="400" font-size="14" transform="matrix(1.15865 0 0 1.15718 589.749 554)">而是建立一條</text><text fill="#555555" font-family="Noto Sans TC,Noto Sans TC_MSFontService,Arial" font-weight="400" font-size="14" transform="matrix(1.15865 0 0 1.15718 687.076 554)">「</text><text fill="#555555" font-family="Noto Sans TC,Noto Sans TC_MSFontService,Arial" font-weight="400" font-size="14" transform="matrix(1.15865 0 0 1.15718 703.298 554)">工具可被替代</text><text fill="#555555" font-family="Noto Sans TC,Noto Sans TC_MSFontService,Arial" font-weight="400" font-size="14" transform="matrix(1.15865 0 0 1.15718 800.625 554)">、</text><text fill="#555555" font-family="Noto Sans TC,Noto Sans TC_MSFontService,Arial" font-weight="400" font-size="14" transform="matrix(1.15865 0 0 1.15718 816.845 554)">流程持續穩定</text><text fill="#555555" font-family="Noto Sans TC,Noto Sans TC_MSFontService,Arial" font-weight="400" font-size="14" transform="matrix(1.15865 0 0 1.15718 914.172 554)">」</text><text fill="#555555" font-family="Noto Sans TC,Noto Sans TC_MSFontService,Arial" font-weight="400" font-size="14" transform="matrix(1.15865 0 0 1.15718 930.394 554)">的開放式工作鏈</text><text fill="#555555" font-family="Noto Sans TC,Noto Sans TC_MSFontService,Arial" font-weight="400" font-size="14" transform="matrix(1.15865 0 0 1.15718 1043.94 554)">。</text></g></svg>