<svg width="3465" height="1597" xmlns="http://www.w3.org/2000/svg" xmlns:xlink="http://www.w3.org/1999/xlink" xml:space="preserve" overflow="hidden"><defs><clipPath id="clip0"><rect x="408" y="789" width="751" height="706"/></clipPath><clipPath id="clip1"><rect x="408" y="789" width="751" height="706"/></clipPath></defs><g transform="translate(-119 -595)"><text fill="#FFFF00" font-family="Oswald,Oswald_MSFontService,Arial" font-weight="400" font-size="633" transform="translate(498.549 1396)">3</text><text fill="#FFFF00" font-family="Oswald,Oswald_MSFontService,Arial" font-weight="400" font-size="633" transform="translate(800.476 1396)">D</text><text fill="#FFFFFF" font-family="Oswald,Oswald_MSFontService,Arial" font-weight="400" font-size="633" transform="translate(1133.91 1396)">esign.Biz</text><text fill="#FF0000" font-family="Oswald,Oswald_MSFontService,Arial" font-weight="400" font-size="367" transform="translate(503.25 1885)">D</text><text fill="#FFFFFF" font-family="Oswald,Oswald_MSFontService,Arial" font-weight="400" font-size="367" transform="translate(696.323 1885)">igital.</text><text fill="#00FF00" font-family="Oswald,Oswald_MSFontService,Arial" font-weight="400" font-size="367" transform="translate(1446.27 1885)">D</text><text fill="#FFFFFF" font-family="Oswald,Oswald_MSFontService,Arial" font-weight="400" font-size="367" transform="translate(1639.34 1885)">esign.</text><text fill="#0000FF" font-family="Oswald,Oswald_MSFontService,Arial" font-weight="400" font-size="367" transform="translate(2403.61 1885)">D</text><text fill="#FFFFFF" font-family="Oswald,Oswald_MSFontService,Arial" font-weight="400" font-size="367" transform="translate(2596.69 1885)">raw</text><g clip-path="url(#clip0)"><g clip-path="url(#clip1)"><g><g><text fill="#FFFF00" font-family="Oswald,Oswald_MSFontService,Arial" font-weight="400" font-size="633" transform="matrix(1.01621 0 0 1.01606 490.249 1401)">3</text><text fill="#FFFF00" font-family="Oswald,Oswald_MSFontService,Arial" font-weight="400" font-size="633" transform="matrix(1.01621 0 0 1.01606 797.144 1401)">D</text><text fill="#FFFFFF" font-family="Oswald,Oswald_MSFontService,Arial" font-weight="400" font-size="633" transform="matrix(1.01621 0 0 1.01606 1135.91 1401)">esign</text><text fill="#FFFFFF" font-family="Oswald,Oswald_MSFontService,Arial" font-weight="400" font-size="633" transform="matrix(1.01621 0 0 1.01606 2357.39 1401)">.</text><text fill="#FFFFFF" font-family="Oswald,Oswald_MSFontService,Arial" font-weight="400" font-size="633" transform="matrix(1.01621 0 0 1.01606 2478.32 1401)">Biz</text><text fill="#FF0000" font-family="Oswald,Oswald_MSFontService,Arial" font-weight="400" font-size="376" transform="matrix(1.01621 0 0 1.01606 491.733 1837)">D</text><text fill="#FFFFFF" font-family="Oswald,Oswald_MSFontService,Arial" font-weight="400" font-size="376" transform="matrix(1.01621 0 0 1.01606 693.176 1837)">igital</text><text fill="#FFFFFF" font-family="Oswald,Oswald_MSFontService,Arial" font-weight="400" font-size="376" transform="matrix(1.01621 0 0 1.01606 1402.49 1837)">.</text><text fill="#00FF00" font-family="Oswald,Oswald_MSFontService,Arial" font-weight="400" font-size="376" transform="matrix(1.01621 0 0 1.01606 1472.74 1837)">D</text><text fill="#FFFFFF" font-family="Oswald,Oswald_MSFontService,Arial" font-weight="400" font-size="376" transform="matrix(1.01621 0 0 1.01606 1674.18 1837)">esign</text><text fill="#FFFFFF" font-family="Oswald,Oswald_MSFontService,Arial" font-weight="400" font-size="376" transform="matrix(1.01621 0 0 1.01606 2399.75 1837)">.</text><text fill="#0000FF" font-family="Oswald,Oswald_MSFontService,Arial" font-weight="400" font-size="376" transform="matrix(1.01621 0 0 1.01606 2470.06 1837)">D</text><text fill="#FFFFFF" font-family="Oswald,Oswald_MSFontService,Arial" font-weight="400" font-size="376" transform="matrix(1.01621 0 0 1.01606 2671.5 1837)">raw</text></g></g></g></g></g></svg>