<svg width="500" height="500" xmlns="http://www.w3.org/2000/svg" xmlns:xlink="http://www.w3.org/1999/xlink" overflow="hidden"><defs><clipPath id="clip-path-dot-color"><rect x="19" y="131" width="14" height="14"/><rect x="19" y="145" width="14" height="14"/><rect x="19" y="159" width="14" height="14"/><rect x="19" y="173" width="14" height="14"/><rect x="19" y="257" width="14" height="14"/><rect x="19" y="285" width="14" height="14"/><rect x="19" y="299" width="14" height="14"/><rect x="19" y="341" width="14" height="14"/><rect x="19" y="355" width="14" height="14"/><rect x="33" y="145" width="14" height="14"/><rect x="33" y="159" width="14" height="14"/><rect x="33" y="187" width="14" height="14"/><rect x="33" y="201" width="14" height="14"/><rect x="33" y="215" width="14" height="14"/><rect x="33" y="229" width="14" height="14"/><rect x="33" y="243" width="14" height="14"/><rect x="33" y="257" width="14" height="14"/><rect x="33" y="299" width="14" height="14"/><rect x="33" y="327" width="14" height="14"/><rect x="33" y="355" width="14" height="14"/><rect x="47" y="173" width="14" height="14"/><rect x="47" y="187" width="14" height="14"/><rect x="47" y="201" width="14" height="14"/><rect x="47" y="229" width="14" height="14"/><rect x="47" y="257" width="14" height="14"/><rect x="47" y="271" width="14" height="14"/><rect x="47" y="285" width="14" height="14"/><rect x="47" y="299" width="14" height="14"/><rect x="61" y="159" width="14" height="14"/><rect x="61" y="173" width="14" height="14"/><rect x="61" y="201" width="14" height="14"/><rect x="61" y="243" width="14" height="14"/><rect x="61" y="285" width="14" height="14"/><rect x="61" y="299" width="14" height="14"/><rect x="61" y="313" width="14" height="14"/><rect x="61" y="327" width="14" height="14"/><rect x="75" y="131" width="14" height="14"/><rect x="75" y="145" width="14" height="14"/><rect x="75" y="159" width="14" height="14"/><rect x="75" y="187" width="14" height="14"/><rect x="75" y="215" width="14" height="14"/><rect x="75" y="243" width="14" height="14"/><rect x="75" y="271" width="14" height="14"/><rect x="75" y="355" width="14" height="14"/><rect x="89" y="131" width="14" height="14"/><rect x="89" y="145" width="14" height="14"/><rect x="89" y="173" width="14" height="14"/><rect x="89" y="201" width="14" height="14"/><rect x="89" y="229" width="14" height="14"/><rect x="89" y="257" width="14" height="14"/><rect x="89" y="299" width="14" height="14"/><rect x="89" y="313" width="14" height="14"/><rect x="89" y="327" width="14" height="14"/><rect x="103" y="131" width="14" height="14"/><rect x="103" y="159" width="14" height="14"/><rect x="103" y="187" width="14" height="14"/><rect x="103" y="215" width="14" height="14"/><rect x="103" y="243" width="14" height="14"/><rect x="103" y="271" width="14" height="14"/><rect x="103" y="299" width="14" height="14"/><rect x="103" y="327" width="14" height="14"/><rect x="103" y="355" width="14" height="14"/><rect x="117" y="215" width="14" height="14"/><rect x="117" y="229" width="14" height="14"/><rect x="117" y="313" width="14" height="14"/><rect x="117" y="327" width="14" height="14"/><rect x="117" y="355" width="14" height="14"/><rect x="131" y="33" width="14" height="14"/><rect x="131" y="47" width="14" height="14"/><rect x="131" y="61" width="14" height="14"/><rect x="131" y="75" width="14" height="14"/><rect x="131" y="89" width="14" height="14"/><rect x="131" y="103" width="14" height="14"/><rect x="131" y="117" width="14" height="14"/><rect x="131" y="145" width="14" height="14"/><rect x="131" y="187" width="14" height="14"/><rect x="131" y="257" width="14" height="14"/><rect x="131" y="271" width="14" height="14"/><rect x="131" y="327" width="14" height="14"/><rect x="131" y="355" width="14" height="14"/><rect x="131" y="397" width="14" height="14"/><rect x="131" y="411" width="14" height="14"/><rect x="131" y="467" width="14" height="14"/><rect x="145" y="33" width="14" height="14"/><rect x="145" y="47" width="14" height="14"/><rect x="145" y="61" width="14" height="14"/><rect x="145" y="75" width="14" height="14"/><rect x="145" y="89" width="14" height="14"/><rect x="145" y="145" width="14" height="14"/><rect x="145" y="201" width="14" height="14"/><rect x="145" y="215" width="14" height="14"/><rect x="145" y="271" width="14" height="14"/><rect x="145" y="285" width="14" height="14"/><rect x="145" y="299" width="14" height="14"/><rect x="145" y="313" width="14" height="14"/><rect x="145" y="327" width="14" height="14"/><rect x="145" y="341" width="14" height="14"/><rect x="145" y="383" width="14" height="14"/><rect x="145" y="397" width="14" height="14"/><rect x="145" y="425" width="14" height="14"/><rect x="145" y="439" width="14" height="14"/><rect x="145" y="453" width="14" height="14"/><rect x="145" y="467" width="14" height="14"/><rect x="159" y="19" width="14" height="14"/><rect x="159" y="103" width="14" height="14"/><rect x="159" y="117" width="14" height="14"/><rect x="159" y="159" width="14" height="14"/><rect x="159" y="173" width="14" height="14"/><rect x="159" y="187" width="14" height="14"/><rect x="159" y="215" width="14" height="14"/><rect x="159" y="271" width="14" height="14"/><rect x="159" y="313" width="14" height="14"/><rect x="159" y="355" width="14" height="14"/><rect x="159" y="411" width="14" height="14"/><rect x="159" y="439" width="14" height="14"/><rect x="159" y="453" width="14" height="14"/><rect x="173" y="33" width="14" height="14"/><rect x="173" y="75" width="14" height="14"/><rect x="173" y="117" width="14" height="14"/><rect x="173" y="173" width="14" height="14"/><rect x="173" y="187" width="14" height="14"/><rect x="173" y="201" width="14" height="14"/><rect x="173" y="215" width="14" height="14"/><rect x="173" y="229" width="14" height="14"/><rect x="173" y="299" width="14" height="14"/><rect x="173" y="313" width="14" height="14"/><rect x="173" y="327" width="14" height="14"/><rect x="173" y="369" width="14" height="14"/><rect x="173" y="411" width="14" height="14"/><rect x="173" y="425" width="14" height="14"/><rect x="173" y="439" width="14" height="14"/><rect x="173" y="453" width="14" height="14"/><rect x="187" y="19" width="14" height="14"/><rect x="187" y="33" width="14" height="14"/><rect x="187" y="103" width="14" height="14"/><rect x="187" y="159" width="14" height="14"/><rect x="187" y="173" width="14" height="14"/><rect x="187" y="201" width="14" height="14"/><rect x="187" y="215" width="14" height="14"/><rect x="187" y="243" width="14" height="14"/><rect x="187" y="271" width="14" height="14"/><rect x="187" y="285" width="14" height="14"/><rect x="187" y="313" width="14" height="14"/><rect x="187" y="355" width="14" height="14"/><rect x="187" y="369" width="14" height="14"/><rect x="187" y="397" width="14" height="14"/><rect x="187" y="411" width="14" height="14"/><rect x="187" y="425" width="14" height="14"/><rect x="187" y="453" width="14" height="14"/><rect x="201" y="47" width="14" height="14"/><rect x="201" y="61" width="14" height="14"/><rect x="201" y="117" width="14" height="14"/><rect x="201" y="131" width="14" height="14"/><rect x="201" y="145" width="14" height="14"/><rect x="201" y="159" width="14" height="14"/><rect x="201" y="173" width="14" height="14"/><rect x="201" y="201" width="14" height="14"/><rect x="201" y="243" width="14" height="14"/><rect x="201" y="257" width="14" height="14"/><rect x="201" y="299" width="14" height="14"/><rect x="201" y="313" width="14" height="14"/><rect x="201" y="327" width="14" height="14"/><rect x="201" y="369" width="14" height="14"/><rect x="201" y="383" width="14" height="14"/><rect x="201" y="439" width="14" height="14"/><rect x="201" y="453" width="14" height="14"/><rect x="201" y="467" width="14" height="14"/><rect x="215" y="19" width="14" height="14"/><rect x="215" y="33" width="14" height="14"/><rect x="215" y="47" width="14" height="14"/><rect x="215" y="61" width="14" height="14"/><rect x="215" y="89" width="14" height="14"/><rect x="215" y="103" width="14" height="14"/><rect x="215" y="117" width="14" height="14"/><rect x="215" y="173" width="14" height="14"/><rect x="215" y="215" width="14" height="14"/><rect x="215" y="271" width="14" height="14"/><rect x="215" y="285" width="14" height="14"/><rect x="215" y="327" width="14" height="14"/><rect x="215" y="341" width="14" height="14"/><rect x="215" y="355" width="14" height="14"/><rect x="215" y="369" width="14" height="14"/><rect x="215" y="383" width="14" height="14"/><rect x="215" y="397" width="14" height="14"/><rect x="215" y="411" width="14" height="14"/><rect x="215" y="453" width="14" height="14"/><rect x="229" y="33" width="14" height="14"/><rect x="229" y="61" width="14" height="14"/><rect x="229" y="89" width="14" height="14"/><rect x="229" y="159" width="14" height="14"/><rect x="229" y="187" width="14" height="14"/><rect x="229" y="215" width="14" height="14"/><rect x="229" y="243" width="14" height="14"/><rect x="229" y="285" width="14" height="14"/><rect x="229" y="299" width="14" height="14"/><rect x="229" y="313" width="14" height="14"/><rect x="229" y="327" width="14" height="14"/><rect x="229" y="341" width="14" height="14"/><rect x="229" y="369" width="14" height="14"/><rect x="229" y="383" width="14" height="14"/><rect x="229" y="411" width="14" height="14"/><rect x="229" y="425" width="14" height="14"/><rect x="229" y="439" width="14" height="14"/><rect x="243" y="19" width="14" height="14"/><rect x="243" y="33" width="14" height="14"/><rect x="243" y="47" width="14" height="14"/><rect x="243" y="89" width="14" height="14"/><rect x="243" y="103" width="14" height="14"/><rect x="243" y="131" width="14" height="14"/><rect x="243" y="159" width="14" height="14"/><rect x="243" y="201" width="14" height="14"/><rect x="243" y="215" width="14" height="14"/><rect x="243" y="243" width="14" height="14"/><rect x="243" y="285" width="14" height="14"/><rect x="243" y="327" width="14" height="14"/><rect x="243" y="341" width="14" height="14"/><rect x="243" y="369" width="14" height="14"/><rect x="243" y="397" width="14" height="14"/><rect x="243" y="411" width="14" height="14"/><rect x="243" y="467" width="14" height="14"/><rect x="257" y="19" width="14" height="14"/><rect x="257" y="47" width="14" height="14"/><rect x="257" y="75" width="14" height="14"/><rect x="257" y="117" width="14" height="14"/><rect x="257" y="131" width="14" height="14"/><rect x="257" y="159" width="14" height="14"/><rect x="257" y="173" width="14" height="14"/><rect x="257" y="201" width="14" height="14"/><rect x="257" y="215" width="14" height="14"/><rect x="257" y="229" width="14" height="14"/><rect x="257" y="243" width="14" height="14"/><rect x="257" y="257" width="14" height="14"/><rect x="257" y="285" width="14" height="14"/><rect x="257" y="299" width="14" height="14"/><rect x="257" y="341" width="14" height="14"/><rect x="257" y="355" width="14" height="14"/><rect x="257" y="383" width="14" height="14"/><rect x="257" y="397" width="14" height="14"/><rect x="257" y="425" width="14" height="14"/><rect x="257" y="439" width="14" height="14"/><rect x="257" y="467" width="14" height="14"/><rect x="271" y="19" width="14" height="14"/><rect x="271" y="89" width="14" height="14"/><rect x="271" y="103" width="14" height="14"/><rect x="271" y="117" width="14" height="14"/><rect x="271" y="131" width="14" height="14"/><rect x="271" y="145" width="14" height="14"/><rect x="271" y="159" width="14" height="14"/><rect x="271" y="173" width="14" height="14"/><rect x="271" y="257" width="14" height="14"/><rect x="271" y="271" width="14" height="14"/><rect x="271" y="327" width="14" height="14"/><rect x="271" y="397" width="14" height="14"/><rect x="271" y="411" width="14" height="14"/><rect x="271" y="439" width="14" height="14"/><rect x="271" y="453" width="14" height="14"/><rect x="285" y="19" width="14" height="14"/><rect x="285" y="47" width="14" height="14"/><rect x="285" y="61" width="14" height="14"/><rect x="285" y="131" width="14" height="14"/><rect x="285" y="159" width="14" height="14"/><rect x="285" y="187" width="14" height="14"/><rect x="285" y="215" width="14" height="14"/><rect x="285" y="229" width="14" height="14"/><rect x="285" y="243" width="14" height="14"/><rect x="285" y="257" width="14" height="14"/><rect x="285" y="271" width="14" height="14"/><rect x="285" y="285" width="14" height="14"/><rect x="285" y="299" width="14" height="14"/><rect x="285" y="397" width="14" height="14"/><rect x="285" y="411" width="14" height="14"/><rect x="285" y="425" width="14" height="14"/><rect x="285" y="439" width="14" height="14"/><rect x="285" y="467" width="14" height="14"/><rect x="299" y="19" width="14" height="14"/><rect x="299" y="33" width="14" height="14"/><rect x="299" y="75" width="14" height="14"/><rect x="299" y="103" width="14" height="14"/><rect x="299" y="117" width="14" height="14"/><rect x="299" y="131" width="14" height="14"/><rect x="299" y="173" width="14" height="14"/><rect x="299" y="229" width="14" height="14"/><rect x="299" y="243" width="14" height="14"/><rect x="299" y="271" width="14" height="14"/><rect x="299" y="299" width="14" height="14"/><rect x="299" y="313" width="14" height="14"/><rect x="299" y="327" width="14" height="14"/><rect x="299" y="341" width="14" height="14"/><rect x="299" y="355" width="14" height="14"/><rect x="299" y="369" width="14" height="14"/><rect x="299" y="397" width="14" height="14"/><rect x="299" y="411" width="14" height="14"/><rect x="299" y="425" width="14" height="14"/><rect x="299" y="453" width="14" height="14"/><rect x="313" y="19" width="14" height="14"/><rect x="313" y="61" width="14" height="14"/><rect x="313" y="117" width="14" height="14"/><rect x="313" y="159" width="14" height="14"/><rect x="313" y="187" width="14" height="14"/><rect x="313" y="229" width="14" height="14"/><rect x="313" y="243" width="14" height="14"/><rect x="313" y="257" width="14" height="14"/><rect x="313" y="355" width="14" height="14"/><rect x="313" y="369" width="14" height="14"/><rect x="313" y="383" width="14" height="14"/><rect x="313" y="397" width="14" height="14"/><rect x="313" y="439" width="14" height="14"/><rect x="313" y="467" width="14" height="14"/><rect x="327" y="19" width="14" height="14"/><rect x="327" y="61" width="14" height="14"/><rect x="327" y="75" width="14" height="14"/><rect x="327" y="103" width="14" height="14"/><rect x="327" y="131" width="14" height="14"/><rect x="327" y="145" width="14" height="14"/><rect x="327" y="173" width="14" height="14"/><rect x="327" y="187" width="14" height="14"/><rect x="327" y="229" width="14" height="14"/><rect x="327" y="271" width="14" height="14"/><rect x="327" y="299" width="14" height="14"/><rect x="327" y="327" width="14" height="14"/><rect x="327" y="397" width="14" height="14"/><rect x="327" y="425" width="14" height="14"/><rect x="327" y="453" width="14" height="14"/><rect x="341" y="19" width="14" height="14"/><rect x="341" y="61" width="14" height="14"/><rect x="341" y="89" width="14" height="14"/><rect x="341" y="117" width="14" height="14"/><rect x="341" y="145" width="14" height="14"/><rect x="341" y="159" width="14" height="14"/><rect x="341" y="173" width="14" height="14"/><rect x="341" y="229" width="14" height="14"/><rect x="341" y="243" width="14" height="14"/><rect x="341" y="257" width="14" height="14"/><rect x="341" y="313" width="14" height="14"/><rect x="341" y="327" width="14" height="14"/><rect x="341" y="341" width="14" height="14"/><rect x="341" y="383" width="14" height="14"/><rect x="341" y="411" width="14" height="14"/><rect x="341" y="425" width="14" height="14"/><rect x="341" y="439" width="14" height="14"/><rect x="341" y="467" width="14" height="14"/><rect x="355" y="19" width="14" height="14"/><rect x="355" y="61" width="14" height="14"/><rect x="355" y="89" width="14" height="14"/><rect x="355" y="103" width="14" height="14"/><rect x="355" y="145" width="14" height="14"/><rect x="355" y="201" width="14" height="14"/><rect x="355" y="243" width="14" height="14"/><rect x="355" y="257" width="14" height="14"/><rect x="355" y="327" width="14" height="14"/><rect x="355" y="341" width="14" height="14"/><rect x="355" y="355" width="14" height="14"/><rect x="355" y="369" width="14" height="14"/><rect x="355" y="383" width="14" height="14"/><rect x="355" y="397" width="14" height="14"/><rect x="355" y="411" width="14" height="14"/><rect x="369" y="131" width="14" height="14"/><rect x="369" y="159" width="14" height="14"/><rect x="369" y="173" width="14" height="14"/><rect x="369" y="215" width="14" height="14"/><rect x="369" y="229" width="14" height="14"/><rect x="369" y="243" width="14" height="14"/><rect x="369" y="285" width="14" height="14"/><rect x="369" y="299" width="14" height="14"/><rect x="369" y="313" width="14" height="14"/><rect x="369" y="327" width="14" height="14"/><rect x="369" y="355" width="14" height="14"/><rect x="369" y="411" width="14" height="14"/><rect x="369" y="439" width="14" height="14"/><rect x="369" y="453" width="14" height="14"/><rect x="369" y="467" width="14" height="14"/><rect x="383" y="131" width="14" height="14"/><rect x="383" y="159" width="14" height="14"/><rect x="383" y="173" width="14" height="14"/><rect x="383" y="187" width="14" height="14"/><rect x="383" y="229" width="14" height="14"/><rect x="383" y="271" width="14" height="14"/><rect x="383" y="299" width="14" height="14"/><rect x="383" y="313" width="14" height="14"/><rect x="383" y="341" width="14" height="14"/><rect x="383" y="355" width="14" height="14"/><rect x="383" y="383" width="14" height="14"/><rect x="383" y="411" width="14" height="14"/><rect x="383" y="439" width="14" height="14"/><rect x="383" y="453" width="14" height="14"/><rect x="397" y="131" width="14" height="14"/><rect x="397" y="145" width="14" height="14"/><rect x="397" y="173" width="14" height="14"/><rect x="397" y="229" width="14" height="14"/><rect x="397" y="271" width="14" height="14"/><rect x="397" y="285" width="14" height="14"/><rect x="397" y="313" width="14" height="14"/><rect x="397" y="327" width="14" height="14"/><rect x="397" y="341" width="14" height="14"/><rect x="397" y="355" width="14" height="14"/><rect x="397" y="411" width="14" height="14"/><rect x="397" y="425" width="14" height="14"/><rect x="397" y="439" width="14" height="14"/><rect x="397" y="467" width="14" height="14"/><rect x="411" y="131" width="14" height="14"/><rect x="411" y="145" width="14" height="14"/><rect x="411" y="173" width="14" height="14"/><rect x="411" y="187" width="14" height="14"/><rect x="411" y="201" width="14" height="14"/><rect x="411" y="215" width="14" height="14"/><rect x="411" y="229" width="14" height="14"/><rect x="411" y="285" width="14" height="14"/><rect x="411" y="313" width="14" height="14"/><rect x="411" y="355" width="14" height="14"/><rect x="411" y="369" width="14" height="14"/><rect x="411" y="383" width="14" height="14"/><rect x="411" y="397" width="14" height="14"/><rect x="411" y="411" width="14" height="14"/><rect x="411" y="425" width="14" height="14"/><rect x="411" y="453" width="14" height="14"/><rect x="411" y="467" width="14" height="14"/><rect x="425" y="131" width="14" height="14"/><rect x="425" y="173" width="14" height="14"/><rect x="425" y="187" width="14" height="14"/><rect x="425" y="215" width="14" height="14"/><rect x="425" y="243" width="14" height="14"/><rect x="425" y="299" width="14" height="14"/><rect x="425" y="313" width="14" height="14"/><rect x="425" y="327" width="14" height="14"/><rect x="425" y="341" width="14" height="14"/><rect x="425" y="355" width="14" height="14"/><rect x="425" y="369" width="14" height="14"/><rect x="425" y="411" width="14" height="14"/><rect x="425" y="425" width="14" height="14"/><rect x="425" y="439" width="14" height="14"/><rect x="425" y="467" width="14" height="14"/><rect x="439" y="131" width="14" height="14"/><rect x="439" y="159" width="14" height="14"/><rect x="439" y="173" width="14" height="14"/><rect x="439" y="215" width="14" height="14"/><rect x="439" y="243" width="14" height="14"/><rect x="439" y="271" width="14" height="14"/><rect x="439" y="285" width="14" height="14"/><rect x="439" y="383" width="14" height="14"/><rect x="439" y="397" width="14" height="14"/><rect x="439" y="425" width="14" height="14"/><rect x="439" y="439" width="14" height="14"/><rect x="453" y="131" width="14" height="14"/><rect x="453" y="145" width="14" height="14"/><rect x="453" y="173" width="14" height="14"/><rect x="453" y="187" width="14" height="14"/><rect x="453" y="201" width="14" height="14"/><rect x="453" y="215" width="14" height="14"/><rect x="453" y="229" width="14" height="14"/><rect x="453" y="271" width="14" height="14"/><rect x="453" y="285" width="14" height="14"/><rect x="453" y="299" width="14" height="14"/><rect x="453" y="313" width="14" height="14"/><rect x="453" y="411" width="14" height="14"/><rect x="453" y="425" width="14" height="14"/><rect x="453" y="439" width="14" height="14"/><rect x="467" y="145" width="14" height="14"/><rect x="467" y="159" width="14" height="14"/><rect x="467" y="173" width="14" height="14"/><rect x="467" y="187" width="14" height="14"/><rect x="467" y="215" width="14" height="14"/><rect x="467" y="243" width="14" height="14"/><rect x="467" y="271" width="14" height="14"/><rect x="467" y="285" width="14" height="14"/><rect x="467" y="327" width="14" height="14"/><rect x="467" y="355" width="14" height="14"/><rect x="467" y="397" width="14" height="14"/><rect x="467" y="453" width="14" height="14"/></clipPath><clipPath id="clip-path-corners-square-color-0-0"><path d="M19 19 19 117 117 117 117 19ZM33 33 103 33 103 103 33 103Z" clip-rule="evenodd"/></clipPath><clipPath id="clip-path-corners-dot-color-0-0"><rect x="47" y="47" width="42" height="42"/></clipPath><clipPath id="clip-path-corners-square-color-1-0"><path d="M383 19 383 117 481 117 481 19ZM397 33 467 33 467 103 397 103Z" clip-rule="evenodd" transform="matrix(6.12323e-17 1 -1 6.12323e-17 500 -364)"/></clipPath><clipPath id="clip-path-corners-dot-color-1-0"><rect x="411" y="47" width="42" height="42" transform="matrix(6.12323e-17 1 -1 6.12323e-17 500 -364)"/></clipPath><clipPath id="clip-path-corners-square-color-0-1"><path d="M19 383 19 481 117 481 117 383ZM33 397 103 397 103 467 33 467Z" clip-rule="evenodd" transform="matrix(6.12323e-17 -1 1 6.12323e-17 -364 500)"/></clipPath><clipPath id="clip-path-corners-dot-color-0-1"><rect x="47" y="411" width="42" height="42" transform="matrix(6.12323e-17 -1 1 6.12323e-17 -364 500)"/></clipPath></defs><rect x="0" y="0" width="500" height="500" fill="#FFFFFF" clip-path="url(#clip-path-background-color)"/><rect x="19" y="19" width="462" height="462" clip-path="url(#clip-path-dot-color)"/><rect x="19" y="19" width="98" height="98" clip-path="url(#clip-path-corners-square-color-0-0)"/><rect x="47" y="47" width="42" height="42" clip-path="url(#clip-path-corners-dot-color-0-0)"/><rect x="383" y="19" width="98" height="98" clip-path="url(#clip-path-corners-square-color-1-0)"/><rect x="411" y="47" width="42" height="42" clip-path="url(#clip-path-corners-dot-color-1-0)"/><rect x="19" y="383" width="98" height="98" clip-path="url(#clip-path-corners-square-color-0-1)"/><rect x="47" y="411" width="42" height="42" clip-path="url(#clip-path-corners-dot-color-0-1)"/></svg>